<mxfile host="app.diagrams.net" modified="2023-12-14T22:45:48.330Z" agent="Mozilla/5.0 (Windows NT 10.0; Win64; x64) AppleWebKit/537.36 (KHTML, like Gecko) Chrome/118.0.0.0 Safari/537.36 OPR/104.0.0.0" version="22.1.9" etag="SDkfHE3XYRdVarpQVaG5" type="github">
  <diagram name="PÃ¡gina-1" id="u1clcXPhJoR4r1j_gXvT">
    <mxGraphModel>
      <root>
        <mxCell id="0" />
        <mxCell id="1" parent="0" />
      </root>
    </mxGraphModel>
  </diagram>
</mxfile>
